<svg width="129" height="134" viewBox="0 0 129 134" fill="none" xmlns="http://www.w3.org/2000/svg">
<path d="M28 57.9919V100C28 102.209 29.7909 104 32 104H75.4211C75.805 104 76.1926 103.944 76.5601 103.833C89.1989 100.011 95.2673 95.2048 99.9918 84.2382C101.079 81.7148 99.1372 79 96.3896 79H90.8892C89.4176 79 88.088 79.8258 87.2797 81.0554C84.1168 85.8673 80.3675 87.7957 75.4126 88.9097C75.1391 88.9712 74.8587 89 74.5783 89H47C44.7909 89 43 87.2091 43 85V58.1659C43 57.725 43.0711 57.286 43.2214 56.8715C45.5432 50.467 48.6782 47.6009 55.6417 43.9449C56.2031 43.6501 56.8307 43.5 57.4647 43.5H82C84.2091 43.5 86 45.2909 86 47.5V50.5C86 52.7091 84.2091 54.5 82 54.5H58.5C56.2909 54.5 54.5 56.2909 54.5 58.5V75C54.5 77.2091 56.2909 79 58.5 79H73.3898C74.423 79 75.4161 78.6002 76.1611 77.8844L99.2713 55.6805C100.056 54.9263 100.5 53.8847 100.5 52.7961V33C100.5 30.7909 98.7091 29 96.5 29H57.182C56.7306 29 56.2759 29.0782 55.8506 29.2296C39.2696 35.1306 32.304 40.6997 28.1222 57.017C28.0411 57.3335 28 57.6652 28 57.9919Z" fill="#6200EE"/>
</svg> 